<svg width="132" height="50" viewBox="0 0 132 50" fill="none" xmlns="http://www.w3.org/2000/svg">
<rect width="132" height="50" rx="25" fill="#00B2D6"/>
<path d="M35.6667 36.5L27.4167 28.25C26.7619 28.7738 26.0089 29.1885 25.1578 29.4941C24.3066 29.7996 23.4008 29.9524 22.4405 29.9524C20.0615 29.9524 18.0481 29.1285 16.4003 27.4807C14.7525 25.8329 13.9286 23.8195 13.9286 21.4405C13.9286 19.0615 14.7525 17.0481 16.4003 15.4003C18.0481 13.7525 20.0615 12.9286 22.4405 12.9286C24.8195 12.9286 26.8329 13.7525 28.4807 15.4003C30.1285 17.0481 30.9524 19.0615 30.9524 21.4405C30.9524 22.4008 30.7996 23.3066 30.4941 24.1578C30.1885 25.0089 29.7738 25.7619 29.25 26.4167L37.5 34.6667L35.6667 36.5ZM22.4405 27.3333C24.0774 27.3333 25.4688 26.7604 26.6146 25.6146C27.7604 24.4688 28.3333 23.0774 28.3333 21.4405C28.3333 19.8036 27.7604 18.4122 26.6146 17.2664C25.4688 16.1206 24.0774 15.5476 22.4405 15.5476C20.8036 15.5476 19.4122 16.1206 18.2664 17.2664C17.1206 18.4122 16.5476 19.8036 16.5476 21.4405C16.5476 23.0774 17.1206 24.4688 18.2664 25.6146C19.4122 26.7604 20.8036 27.3333 22.4405 27.3333Z" fill="#DBD6FF"/>
<path d="M59.7159 21.0909C59.6307 20.3712 59.285 19.8125 58.679 19.4148C58.0729 19.017 57.3295 18.8182 56.4489 18.8182C55.8049 18.8182 55.2415 18.9223 54.7585 19.1307C54.2803 19.339 53.9063 19.6255 53.6364 19.9901C53.3712 20.3546 53.2386 20.7689 53.2386 21.233C53.2386 21.6212 53.331 21.955 53.5156 22.2344C53.705 22.509 53.9465 22.7386 54.2401 22.9233C54.5336 23.1032 54.8414 23.2524 55.1634 23.3707C55.4853 23.4844 55.7812 23.5767 56.0511 23.6477L57.5284 24.0455C57.9072 24.1449 58.3286 24.2822 58.7926 24.4574C59.2614 24.6326 59.7088 24.8717 60.1349 25.1747C60.5658 25.473 60.9209 25.8565 61.2003 26.3253C61.4796 26.794 61.6193 27.3693 61.6193 28.0511C61.6193 28.8371 61.4134 29.5473 61.0014 30.1818C60.5942 30.8163 59.9976 31.3205 59.2116 31.6946C58.4304 32.0687 57.4811 32.2557 56.3636 32.2557C55.322 32.2557 54.42 32.0876 53.6577 31.7514C52.9001 31.4152 52.3035 30.9465 51.8679 30.3452C51.437 29.7438 51.1932 29.0455 51.1364 28.25H52.9545C53.0019 28.7992 53.1866 29.2538 53.5085 29.6136C53.8352 29.9687 54.2472 30.2339 54.7443 30.4091C55.2462 30.5795 55.786 30.6648 56.3636 30.6648C57.036 30.6648 57.6397 30.5559 58.1747 30.3381C58.7098 30.1155 59.1335 29.8078 59.446 29.4148C59.7585 29.017 59.9148 28.553 59.9148 28.0227C59.9148 27.5398 59.7798 27.1468 59.5099 26.8438C59.2401 26.5407 58.8849 26.2945 58.4446 26.1051C58.0043 25.9157 57.5284 25.75 57.017 25.608L55.2273 25.0966C54.0909 24.7699 53.1913 24.3035 52.5284 23.6974C51.8655 23.0914 51.5341 22.2983 51.5341 21.3182C51.5341 20.5038 51.7543 19.7936 52.1946 19.1875C52.6397 18.5767 53.2363 18.1032 53.9844 17.767C54.7372 17.4261 55.5777 17.2557 56.5057 17.2557C57.4432 17.2557 58.2765 17.4238 59.0057 17.7599C59.7348 18.0914 60.3125 18.5459 60.7386 19.1236C61.1695 19.7012 61.3968 20.357 61.4205 21.0909H59.7159ZM68.8619 32.2273C67.8107 32.2273 66.904 31.9953 66.1417 31.5312C65.3841 31.0625 64.7994 30.4091 64.3874 29.571C63.9802 28.7282 63.7766 27.7481 63.7766 26.6307C63.7766 25.5133 63.9802 24.5284 64.3874 23.6761C64.7994 22.8191 65.3723 22.1515 66.1062 21.6733C66.8448 21.1903 67.7066 20.9489 68.6914 20.9489C69.2596 20.9489 69.8207 21.0436 70.3746 21.233C70.9286 21.4223 71.4329 21.7301 71.8874 22.1562C72.342 22.5777 72.7042 23.1364 72.9741 23.8324C73.244 24.5284 73.3789 25.3854 73.3789 26.4034V27.1136H64.9698V25.6648H71.6744C71.6744 25.0492 71.5513 24.5 71.305 24.017C71.0636 23.5341 70.7179 23.1529 70.2681 22.8736C69.823 22.5942 69.2975 22.4545 68.6914 22.4545C68.0238 22.4545 67.4461 22.6203 66.9585 22.9517C66.4755 23.2784 66.1038 23.7045 65.8434 24.2301C65.583 24.7557 65.4528 25.3191 65.4528 25.9205V26.8864C65.4528 27.7102 65.5948 28.4086 65.8789 28.9815C66.1677 29.5497 66.5678 29.983 67.0792 30.2812C67.5906 30.5748 68.1848 30.7216 68.8619 30.7216C69.3022 30.7216 69.6999 30.66 70.055 30.5369C70.4149 30.4091 70.725 30.2197 70.9854 29.9688C71.2459 29.7131 71.4471 29.3958 71.5891 29.017L73.2085 29.4716C73.038 30.0208 72.7515 30.5038 72.3491 30.9205C71.9466 31.3324 71.4495 31.6544 70.8576 31.8864C70.2657 32.1136 69.6005 32.2273 68.8619 32.2273ZM75.9286 32V21.0909H77.5479V22.7386H77.6616C77.8604 22.1989 78.2203 21.7609 78.7411 21.4247C79.262 21.0885 79.8491 20.9205 80.5025 20.9205C80.6256 20.9205 80.7795 20.9228 80.9641 20.9276C81.1488 20.9323 81.2885 20.9394 81.3832 20.9489V22.6534C81.3263 22.6392 81.1961 22.6179 80.9925 22.5895C80.7937 22.5563 80.583 22.5398 80.3604 22.5398C79.8301 22.5398 79.3567 22.651 78.94 22.8736C78.5281 23.0914 78.2013 23.3944 77.9599 23.7827C77.7231 24.1662 77.6048 24.6042 77.6048 25.0966V32H75.9286ZM86.5803 32.2557C85.889 32.2557 85.2616 32.1255 84.6982 31.8651C84.1347 31.5999 83.6873 31.2188 83.3558 30.7216C83.0244 30.2197 82.8587 29.6136 82.8587 28.9034C82.8587 28.2784 82.9818 27.7718 83.228 27.3835C83.4742 26.9905 83.8033 26.6828 84.2152 26.4602C84.6271 26.2377 85.0817 26.072 85.5788 25.9631C86.0807 25.8494 86.585 25.7595 87.0916 25.6932C87.7545 25.608 88.2919 25.544 88.7038 25.5014C89.1205 25.4541 89.4235 25.3759 89.6129 25.267C89.8071 25.1581 89.9041 24.9687 89.9041 24.6989V24.642C89.9041 23.9413 89.7124 23.3968 89.3288 23.0085C88.95 22.6203 88.3748 22.4261 87.603 22.4261C86.8028 22.4261 86.1754 22.6013 85.7209 22.9517C85.2663 23.3021 84.9467 23.6761 84.7621 24.0739L83.1712 23.5057C83.4553 22.8428 83.834 22.3267 84.3075 21.9574C84.7857 21.5833 85.3066 21.3229 85.87 21.1761C86.4382 21.0246 86.9969 20.9489 87.5462 20.9489C87.8965 20.9489 88.299 20.9915 88.7536 21.0767C89.2128 21.1572 89.6555 21.3253 90.0817 21.581C90.5125 21.8366 90.87 22.2225 91.1541 22.7386C91.4382 23.2547 91.5803 23.946 91.5803 24.8125V32H89.9041V30.5227H89.8189C89.7053 30.7595 89.5159 31.0128 89.2507 31.2827C88.9856 31.5526 88.6328 31.7822 88.1925 31.9716C87.7521 32.161 87.2147 32.2557 86.5803 32.2557ZM86.8359 30.75C87.4988 30.75 88.0575 30.6198 88.5121 30.3594C88.9714 30.099 89.317 29.7628 89.549 29.3509C89.7857 28.9389 89.9041 28.5057 89.9041 28.0511V26.517C89.8331 26.6023 89.6768 26.6804 89.4354 26.7514C89.1986 26.8177 88.924 26.8769 88.6115 26.929C88.3037 26.9763 88.0031 27.0189 87.7095 27.0568C87.4207 27.09 87.1863 27.1184 87.0064 27.142C86.5708 27.1989 86.1636 27.2912 85.7848 27.419C85.4107 27.5421 85.1077 27.7292 84.8757 27.9801C84.6484 28.2263 84.5348 28.5625 84.5348 28.9886C84.5348 29.571 84.7502 30.0114 85.1811 30.3097C85.6167 30.6032 86.1683 30.75 86.8359 30.75ZM99.0714 32.2273C98.0487 32.2273 97.168 31.9858 96.4293 31.5028C95.6907 31.0199 95.1225 30.3546 94.7248 29.5071C94.3271 28.6596 94.1282 27.6913 94.1282 26.6023C94.1282 25.4943 94.3318 24.5166 94.739 23.669C95.1509 22.8168 95.7238 22.1515 96.4577 21.6733C97.1964 21.1903 98.0581 20.9489 99.043 20.9489C99.81 20.9489 100.501 21.0909 101.117 21.375C101.732 21.6591 102.237 22.0568 102.63 22.5682C103.023 23.0795 103.266 23.6761 103.361 24.358H101.685C101.557 23.8608 101.273 23.4205 100.833 23.0369C100.397 22.6487 99.81 22.4545 99.0714 22.4545C98.418 22.4545 97.8451 22.625 97.3526 22.9659C96.8649 23.3021 96.4838 23.7779 96.2092 24.3935C95.9393 25.0043 95.8043 25.7216 95.8043 26.5455C95.8043 27.3883 95.9369 28.1222 96.2021 28.7472C96.4719 29.3722 96.8507 29.8575 97.3384 30.2031C97.8308 30.5488 98.4085 30.7216 99.0714 30.7216C99.507 30.7216 99.9023 30.6458 100.257 30.4943C100.613 30.3428 100.913 30.125 101.159 29.8409C101.406 29.5568 101.581 29.2159 101.685 28.8182H103.361C103.266 29.4621 103.032 30.0421 102.658 30.5582C102.289 31.0696 101.799 31.4768 101.188 31.7798C100.582 32.0781 99.8763 32.2273 99.0714 32.2273ZM107.488 25.4375V32H105.811V17.4545H107.488V22.7955H107.63C107.885 22.232 108.269 21.7846 108.78 21.4531C109.296 21.117 109.983 20.9489 110.84 20.9489C111.583 20.9489 112.234 21.098 112.793 21.3963C113.352 21.6899 113.785 22.142 114.093 22.7528C114.405 23.3589 114.561 24.1307 114.561 25.0682V32H112.885V25.1818C112.885 24.3153 112.66 23.6454 112.211 23.1719C111.766 22.6937 111.148 22.4545 110.357 22.4545C109.808 22.4545 109.315 22.5705 108.88 22.8026C108.449 23.0346 108.108 23.3731 107.857 23.8182C107.611 24.2633 107.488 24.803 107.488 25.4375Z" fill="white"/>
</svg>
