<svg width="50" height="50" viewBox="0 0 50 50" fill="none" xmlns="http://www.w3.org/2000/svg">
<circle cx="25" cy="25" r="25" fill="#00B2D6"/>
<path d="M34.9522 36.7857L26.7022 28.5357C26.0474 29.0595 25.2945 29.4742 24.4433 29.7797C23.5921 30.0853 22.6863 30.2381 21.726 30.2381C19.347 30.2381 17.3337 29.4142 15.6858 27.7663C14.038 26.1185 13.2141 24.1051 13.2141 21.7262C13.2141 19.3472 14.038 17.3338 15.6858 15.686C17.3337 14.0382 19.347 13.2143 21.726 13.2143C24.105 13.2143 26.1184 14.0382 27.7662 15.686C29.414 17.3338 30.2379 19.3472 30.2379 21.7262C30.2379 22.6865 30.0851 23.5922 29.7796 24.4434C29.474 25.2946 29.0593 26.0476 28.5355 26.7024L36.7855 34.9524L34.9522 36.7857ZM21.726 27.619C23.3629 27.619 24.7543 27.0461 25.9001 25.9003C27.046 24.7544 27.6189 23.3631 27.6189 21.7262C27.6189 20.0893 27.046 18.6979 25.9001 17.5521C24.7543 16.4062 23.3629 15.8333 21.726 15.8333C20.0891 15.8333 18.6977 16.4062 17.5519 17.5521C16.4061 18.6979 15.8332 20.0893 15.8332 21.7262C15.8332 23.3631 16.4061 24.7544 17.5519 25.9003C18.6977 27.0461 20.0891 27.619 21.726 27.619Z" fill="#DBD6FF"/>
</svg>
