<svg width="70" height="70" viewBox="0 0 70 70" fill="none" xmlns="http://www.w3.org/2000/svg">
<circle cx="35" cy="35" r="35" fill="#00B2D6"/>
<path d="M48.9333 51.5L37.3833 39.95C36.4667 40.6833 35.4125 41.2639 34.2208 41.6917C33.0292 42.1194 31.7611 42.3333 30.4167 42.3333C27.0861 42.3333 24.2674 41.1799 21.9604 38.8729C19.6535 36.566 18.5 33.7472 18.5 30.4167C18.5 27.0861 19.6535 24.2674 21.9604 21.9604C24.2674 19.6535 27.0861 18.5 30.4167 18.5C33.7472 18.5 36.566 19.6535 38.8729 21.9604C41.1799 24.2674 42.3333 27.0861 42.3333 30.4167C42.3333 31.7611 42.1194 33.0292 41.6917 34.2208C41.2639 35.4125 40.6833 36.4667 39.95 37.3833L51.5 48.9333L48.9333 51.5ZM30.4167 38.6667C32.7083 38.6667 34.6562 37.8646 36.2604 36.2604C37.8646 34.6562 38.6667 32.7083 38.6667 30.4167C38.6667 28.125 37.8646 26.1771 36.2604 24.5729C34.6562 22.9688 32.7083 22.1667 30.4167 22.1667C28.125 22.1667 26.1771 22.9688 24.5729 24.5729C22.9688 26.1771 22.1667 28.125 22.1667 30.4167C22.1667 32.7083 22.9688 34.6562 24.5729 36.2604C26.1771 37.8646 28.125 38.6667 30.4167 38.6667Z" fill="#DBD6FF"/>
</svg>
